HIERARCHY
ROOT joint_Root
{
	OFFSET 0.0 0.0 0.0
	CHANNELS 6 Xposition Yposition Zposition Zrotation Xrotation Yrotation 
	JOINT Hips
	{
		OFFSET -0.726466 93.3139 -2.00062
		CHANNELS 6 Xposition Yposition Zposition Zrotation Xrotation Yrotation 
		JOINT Spine
		{
			OFFSET 15.7357 0.0 0.0
			CHANNELS 6 Xposition Yposition Zposition Zrotation Xrotation Yrotation 
			JOINT Chest
			{
				OFFSET 8.98455 -0.406207 0.0
				CHANNELS 6 Xposition Yposition Zposition Zrotation Xrotation Yrotation 
				JOINT Neck
				{
					OFFSET 16.3773 0.0 0.0
					CHANNELS 6 Xposition Yposition Zposition Zrotation Xrotation Yrotation 
					JOINT Head
					{
						OFFSET 6.45672 0.0 0.0
						CHANNELS 6 Xposition Yposition Zposition Zrotation Xrotation Yrotation 
						End Site
						{
							OFFSET 0.0 0.0 0.0
						}
					}
				}
				JOINT Shoulder_L
				{
					OFFSET 12.9942 -0.242716 4.98039
					CHANNELS 6 Xposition Yposition Zposition Zrotation Xrotation Yrotation 
					JOINT UpperArm_L
					{
						OFFSET 5.34809 0.0 0.0
						CHANNELS 6 Xposition Yposition Zposition Zrotation Xrotation Yrotation 
						JOINT LowerArm_L
						{
							OFFSET 24.3286 1.87007e-05 0.0
							CHANNELS 6 Xposition Yposition Zposition Zrotation Xrotation Yrotation 
							JOINT Hand_L
							{
								OFFSET 22.2916 0.0 0.0
								CHANNELS 6 Xposition Yposition Zposition Zrotation Xrotation Yrotation 
								End Site
								{
									OFFSET 0.0 0.0 0.0
								}
							}
						}
					}
				}
				JOINT Shoulder_R
				{
					OFFSET 12.9945 -0.242716 -4.98039
					CHANNELS 6 Xposition Yposition Zposition Zrotation Xrotation Yrotation 
					JOINT UpperArm_R
					{
						OFFSET -5.34813 0.0 0.0
						CHANNELS 6 Xposition Yposition Zposition Zrotation Xrotation Yrotation 
						JOINT LowerArm_R
						{
							OFFSET -24.3289 0.000322201 0.0
							CHANNELS 6 Xposition Yposition Zposition Zrotation Xrotation Yrotation 
							JOINT Hand_R
							{
								OFFSET -22.2915 -0.000108084 0.0
								CHANNELS 6 Xposition Yposition Zposition Zrotation Xrotation Yrotation 
								End Site
								{
									OFFSET 0.0 0.0 0.0
								}
							}
						}
					}
				}
			}
		}
		JOINT UpperLeg_L
		{
			OFFSET -2.19248 -6.46944 0.0
			CHANNELS 6 Xposition Yposition Zposition Zrotation Xrotation Yrotation 
			JOINT LowerLeg_L
			{
				OFFSET 39.0811 0.0 -1.23785e-05
				CHANNELS 6 Xposition Yposition Zposition Zrotation Xrotation Yrotation 
				JOINT Foot_L
				{
					OFFSET 40.9854 0.0 -1.26872e-05
					CHANNELS 6 Xposition Yposition Zposition Zrotation Xrotation Yrotation 
					JOINT Toes_L
					{
						OFFSET 11.7543 0.0 0.0
						CHANNELS 6 Xposition Yposition Zposition Zrotation Xrotation Yrotation 
						End Site
						{
							OFFSET 0.0 0.0 0.0
						}
					}
				}
			}
		}
		JOINT UpperLeg_R
		{
			OFFSET -2.19251 6.46944 0.0
			CHANNELS 6 Xposition Yposition Zposition Zrotation Xrotation Yrotation 
			JOINT LowerLeg_R
			{
				OFFSET -39.0811 -0.00228153 -0.0401928
				CHANNELS 6 Xposition Yposition Zposition Zrotation Xrotation Yrotation 
				JOINT Foot_R
				{
					OFFSET -40.9854 0.0 0.0
					CHANNELS 6 Xposition Yposition Zposition Zrotation Xrotation Yrotation 
					JOINT Toes_R
					{
						OFFSET -11.7543 0.0 0.0
						CHANNELS 6 Xposition Yposition Zposition Zrotation Xrotation Yrotation 
						End Site
						{
							OFFSET 0.0 0.0 0.0
						}
					}
				}
			}
		}
	}
}
MOTION
Frames:	4
Frame Time:	0.0333333
0.000000 0.000000 0.000000 0.000000 0.000000 -0.000000 1.612520 86.306100 527.910000 -92.527100 10.376100 176.999000 15.735700 0.000005 -0.000001 116.677000 81.370600 -118.805000 8.984550 -0.406207 -0.000000 7.856930 7.715400 -4.787970 16.377300 -0.000001 -0.000001 0.309208 0.395452 -0.491747 6.456720 -0.000001 -0.000000 1.865900 -5.481860 -1.036210 12.994200 -0.242716 4.980390 -88.744700 -2.902800 -66.601900 5.348090 -0.000007 -0.000001 -74.456700 2.629150 14.918900 24.328600 0.000019 0.000005 0.773919 9.704310 -4.583840 22.291600 -0.000001 0.000005 9.503010 5.221450 2.171790 12.994500 -0.242716 -4.980390 88.947900 4.666840 -77.280500 -5.348130 -0.000001 -0.000004 -51.867100 26.122200 -43.211200 -24.328900 0.000322 -0.000009 4.821510 5.148900 -43.230100 -22.291500 -0.000108 -0.000004 17.070400 5.450730 -4.665590 -2.192480 -6.469440 -0.000000 178.872000 -11.150000 -35.243100 39.081100 -0.000007 -0.000012 -0.212277 0.197748 47.029900 40.985400 -0.000006 -0.000013 -2.138380 -3.785760 -65.296800 11.754300 -0.000000 0.000003 -0.000265 -0.004342 -16.753800 -2.192510 6.469440 -0.000001 164.958000 22.202800 -170.686000 -39.081100 -0.002282 -0.040193 -0.102862 0.184302 29.943400 -40.985400 0.000008 0.000006 -9.864240 -2.471620 -71.055700 -11.754300 -0.000006 -0.000006 -0.040952 -0.263880 -27.415500
0.000000 0.000000 0.000000 0.000000 0.000000 -0.000000 0.610458 86.488800 524.381000 -92.105300 9.764970 177.466000 15.735700 0.000005 -0.000001 115.473000 81.623400 -117.457000 8.984550 -0.406207 -0.000000 7.531410 7.182010 -4.442140 16.377300 -0.000001 -0.000001 0.058088 0.538743 -0.600469 6.456720 -0.000001 -0.000000 1.691300 -5.145450 -0.700992 12.994200 -0.242716 4.980390 -89.197100 -1.864220 -66.695200 5.348090 -0.000007 -0.000001 -77.301600 7.879410 10.768900 24.328600 0.000019 0.000005 0.996517 7.874750 -7.238680 22.291600 -0.000001 0.000005 8.704890 5.253240 1.344950 12.994500 -0.242716 -4.980390 88.936000 4.813120 -77.519200 -5.348130 -0.000001 -0.000004 -53.002900 31.311700 -39.588400 -24.328900 0.000322 -0.000009 3.689690 4.956970 -36.754100 -22.291500 -0.000108 -0.000004 15.423600 5.459010 -4.952440 -2.192480 -6.469440 -0.000000 178.620000 -10.990000 -32.671000 39.081100 -0.000007 -0.000012 -0.261380 0.234746 48.073600 40.985400 -0.000006 -0.000013 -1.446240 -3.486940 -68.497200 11.754300 -0.000000 0.000003 -0.000017 -0.000222 -16.586200 -2.192510 6.469440 -0.000001 164.978000 19.022700 -172.316000 -39.081100 -0.002282 -0.040193 -0.015556 0.026417 35.503900 -40.985400 0.000008 0.000006 -9.129750 -6.292810 -65.049100 -11.754300 -0.000006 -0.000006 -0.088080 -0.413965 -33.796200
0.000000 0.000000 0.000000 0.000000 0.000000 -0.000000 -0.284963 86.972200 520.958000 -91.433700 8.522940 178.046000 15.735700 0.000005 -0.000001 112.703000 81.881900 -114.333000 8.984550 -0.406207 -0.000000 7.336570 6.249740 -3.659470 16.377300 -0.000001 -0.000001 -0.166224 0.427635 -0.590849 6.456720 -0.000001 -0.000000 1.598710 -4.775510 -0.658616 12.994200 -0.242716 4.980390 -89.511800 -1.170940 -67.368800 5.348090 -0.000007 -0.000001 -79.413500 14.304600 6.146860 24.328600 0.000019 0.000005 1.181790 5.650530 -11.861900 22.291600 -0.000001 0.000005 7.947430 5.301130 0.035659 12.994500 -0.242716 -4.980390 88.963500 4.692940 -77.531200 -5.348130 -0.000001 -0.000004 -55.529200 35.740900 -35.682100 -24.328900 0.000322 -0.000009 3.534800 6.590330 -28.314900 -22.291500 -0.000108 -0.000004 11.964900 5.437510 -4.187420 -2.192480 -6.469440 -0.000000 178.787000 -10.064900 -29.161900 39.081100 -0.000007 -0.000012 -0.287279 0.263205 47.504800 40.985400 -0.000006 -0.000013 -0.852608 -3.403920 -70.834000 11.754300 -0.000000 0.000003 -0.000049 -0.000554 -16.599100 -2.192510 6.469440 -0.000001 166.721000 14.364700 -175.503000 -39.081100 -0.002282 -0.040193 0.106832 -0.113141 42.468600 -40.985400 0.000008 0.000006 -6.185910 -11.488900 -56.335800 -11.754300 -0.000006 -0.000006 -0.101973 -0.449424 -35.340200
0.000000 0.000000 0.000000 0.000000 0.000000 -0.000000 -0.932419 87.562600 517.754000 -90.591800 7.089020 178.835000 15.735700 0.000005 -0.000001 108.384000 82.046200 -109.576000 8.984550 -0.406207 -0.000000 7.404390 5.002170 -2.706420 16.377300 -0.000001 -0.000001 -0.458414 0.262158 -0.642581 6.456720 -0.000001 -0.000000 1.541000 -4.144450 -0.424123 12.994200 -0.242716 4.980390 -89.595500 -1.014310 -68.256400 5.348090 -0.000007 -0.000001 -79.568100 23.352300 0.657592 24.328600 0.000019 0.000005 0.750445 2.254330 -18.474700 22.291600 -0.000001 0.000005 8.982250 5.338160 -1.014120 12.994500 -0.242716 -4.980390 88.994500 4.530430 -77.473200 -5.348130 -0.000001 -0.000004 -59.980700 38.029600 -30.744500 -24.328900 0.000322 -0.000009 3.639180 10.218000 -19.751800 -22.291500 -0.000108 -0.000004 8.339030 5.395950 -2.784780 -2.192480 -6.469440 -0.000000 179.395000 -8.646820 -25.116500 39.081100 -0.000007 -0.000012 -0.305980 0.295241 46.023900 40.985400 -0.000006 -0.000013 -0.555100 -3.557600 -72.530500 11.754300 -0.000000 0.000003 -0.000077 -0.000826 -16.609400 -2.192510 6.469440 -0.000001 169.447000 11.197400 -179.731000 -39.081100 -0.002282 -0.040193 0.186130 -0.151065 50.442900 -40.985400 0.000008 0.000006 3.495750 -15.966500 -46.665700 -11.754300 -0.000006 -0.000006 -0.031191 -0.222869 -25.706400
